# xmcd
#
# Track frame offsets:
#	150
#	13215
#	28039
#	40633
#	52661
#	66778
#	78210
#	91868
#	106340
#	118967
#	131889
#	140853
#	151785
#	161394
#	180470
#	194080
#	207967
#	219856
#	231890
#	241680
#
# Disc length: 3378
#
# Revision: 2
# Processed by: cddbd v1.5.1PL0 Copyright (c) Steve Scherf et al.
# Submitted via: CDex 1.51
# Normalized: r1:TDELIM( - ),TSWAP
#
DISCID=090d3014
DTITLE=Dean Martin Sammy Davis Jr Frank Sinatra - The Rat Pack (Disk Two)
DYEAR=2003
DGENRE=Jazz
TTITLE0=Dean Martin - I Got The Sun In The Morning
TTITLE1=Frank Sinatra - Embraceable You
TTITLE2=Sammy Davis Jr - I'm Sorry Dear
TTITLE3=Dean Martin - Vieni Su (Say You Love Me Too)
TTITLE4=Frank Sinatra - Begin tThe Beguine
TTITLE5=Sammy Davis Jr - Yours Is My Heart Alone
TTITLE6=Dean Martin - That Lucky Old Sun (Just Rolls Around Heaven All Day)
TTITLE7=Frank Sinatra - Full Moon And Empty Arms
TTITLE8=Sammy Davis Jr - Be-Bop the Beguine (with out-take)
TTITLE9=Dean Martin - Solitaire
TTITLE10=Frank Sinatra - On The Sunny Side Of The Street
TTITLE11=Sammy Davis Jr - I Aint Got Nobody
TTITLE12=Dean Martin - You And Your Beautifull Eyes
TTITLE13=Frank Sinatra - Stormy Weather
TTITLE14=Sammy Davis Jr - Dreamy Blues
TTITLE15=Dean Martin - Bye Bye Blackbird
TTITLE16=Frank Sinatra - You Luckky People, You
TTITLE17=Sammy Davis Jr (as Shorty Muggins) - Got A Great Big Shovel
TTITLE18=Sammy Davis (as Shorty Muggins) - We're Gonna Roll
TTITLE19=Sammy Davis Jr - You Are My Lucky Star
EXTD=YEAR: 2003
EXTT0=
EXTT1=
EXTT2=
EXTT3=
EXTT4=
EXTT5=
EXTT6=
EXTT7=
EXTT8=
EXTT9=
EXTT10=
EXTT11=
EXTT12=
EXTT13=
EXTT14=
EXTT15=
EXTT16=
EXTT17=
EXTT18=
EXTT19=
PLAYORDER=
